<svg width="264" height="63" viewBox="0 0 264 63" fill="none" xmlns="http://www.w3.org/2000/svg">
<path d="M1.36 2.504H7.072V30.68H19.216V35H1.36V2.504ZM40.7129 23.432C40.7129 25.352 40.8249 26.968 41.0489 28.28C41.3049 29.56 41.5769 30.6 41.8649 31.4C42.2169 32.36 42.6009 33.112 43.0169 33.656L38.7449 35.384C38.3289 34.968 37.9449 34.472 37.5929 33.896C37.3049 33.384 37.0329 32.776 36.7769 32.072C36.5209 31.336 36.3609 30.472 36.2969 29.48C35.7529 31.4 34.8729 32.856 33.6569 33.848C32.4729 34.808 30.8569 35.288 28.8089 35.288C27.3049 35.288 25.9929 35.016 24.8729 34.472C23.7849 33.896 22.8729 33.096 22.1369 32.072C21.4009 31.016 20.8569 29.752 20.5049 28.28C20.1529 26.808 19.9769 25.176 19.9769 23.384C19.9769 21.56 20.2489 19.88 20.7929 18.344C21.3689 16.776 22.1529 15.432 23.1449 14.312C24.1689 13.192 25.3849 12.312 26.7929 11.672C28.2009 11.032 29.7529 10.712 31.4489 10.712C32.4089 10.712 33.4009 10.792 34.4249 10.952C35.4809 11.08 36.4569 11.224 37.3529 11.384C38.2489 11.544 39.0009 11.704 39.6089 11.864C40.2489 11.992 40.6169 12.072 40.7129 12.104V23.432ZM29.7209 31.448C30.5209 31.448 31.2569 31.176 31.9289 30.632C32.6009 30.088 33.1769 29.384 33.6569 28.52C34.1689 27.624 34.5529 26.616 34.8089 25.496C35.0969 24.344 35.2409 23.176 35.2409 21.992V15.08C34.9209 14.984 34.4409 14.872 33.8009 14.744C33.1609 14.616 32.5849 14.552 32.0729 14.552C30.8569 14.552 29.8489 14.76 29.0489 15.176C28.2809 15.592 27.6569 16.168 27.1769 16.904C26.6969 17.64 26.3609 18.52 26.1689 19.544C25.9769 20.568 25.8809 21.688 25.8809 22.904C25.8809 24.024 25.9129 25.096 25.9769 26.12C26.0409 27.144 26.2009 28.056 26.4569 28.856C26.7449 29.656 27.1449 30.296 27.6569 30.776C28.1689 31.224 28.8569 31.448 29.7209 31.448ZM59.6256 2.504C59.8496 2.504 60.3616 2.504 61.1616 2.504C61.9616 2.472 62.8576 2.456 63.8496 2.456C64.8416 2.456 65.8336 2.456 66.8256 2.456C67.8176 2.424 68.6336 2.408 69.2736 2.408C72.9856 2.408 75.8016 3.144 77.7216 4.616C79.6736 6.088 80.6496 8.168 80.6496 10.856C80.6496 12.424 80.2176 13.832 79.3536 15.08C78.4896 16.328 77.2896 17.336 75.7536 18.104C77.6736 18.84 79.1296 19.88 80.1216 21.224C81.1456 22.568 81.6576 24.12 81.6576 25.88C81.6576 28.632 80.6176 30.856 78.5376 32.552C76.4576 34.216 73.3056 35.048 69.0816 35.048C68.2176 35.048 67.2896 35.048 66.2976 35.048C65.3056 35.048 64.3616 35.032 63.4656 35C62.5696 35 61.7696 35 61.0656 35C60.3936 35 59.9136 35 59.6256 35V2.504ZM65.3376 30.92H69.4656C71.6416 30.92 73.1936 30.44 74.1216 29.48C75.0816 28.488 75.5616 27.256 75.5616 25.784C75.5616 25.112 75.4496 24.456 75.2256 23.816C75.0336 23.176 74.6816 22.6 74.1696 22.088C73.6576 21.576 72.9696 21.176 72.1056 20.888C71.2736 20.568 70.2176 20.408 68.9376 20.408C68.1696 20.408 67.4816 20.408 66.8736 20.408C66.2976 20.408 65.7856 20.424 65.3376 20.456V30.92ZM65.3376 16.328H69.0336C71.0496 16.328 72.4896 15.864 73.3536 14.936C74.2176 14.008 74.6496 12.872 74.6496 11.528C74.6496 10.92 74.5536 10.312 74.3616 9.704C74.1696 9.096 73.8336 8.552 73.3536 8.072C72.9056 7.592 72.2816 7.208 71.4816 6.92C70.7136 6.632 69.7376 6.488 68.5536 6.488C67.8496 6.488 67.2256 6.488 66.6816 6.488C66.1696 6.488 65.7216 6.504 65.3376 6.536V16.328ZM96.0303 10.52C99.7103 10.52 102.382 11.608 104.046 13.784C105.71 15.96 106.542 18.952 106.542 22.76C106.542 24.552 106.318 26.232 105.87 27.8C105.422 29.336 104.734 30.68 103.806 31.832C102.91 32.952 101.774 33.848 100.398 34.52C99.0223 35.16 97.4223 35.48 95.5983 35.48C93.7743 35.48 92.1903 35.208 90.8463 34.664C89.5343 34.088 88.4463 33.272 87.5823 32.216C86.7183 31.16 86.0783 29.88 85.6623 28.376C85.2783 26.872 85.0863 25.176 85.0863 23.288C85.0863 21.464 85.3103 19.784 85.7583 18.248C86.2063 16.68 86.8783 15.336 87.7743 14.216C88.7023 13.064 89.8543 12.168 91.2303 11.528C92.6063 10.856 94.2063 10.52 96.0303 10.52ZM95.5503 14.552C94.6223 14.552 93.8543 14.76 93.2463 15.176C92.6703 15.592 92.2063 16.184 91.8543 16.952C91.5343 17.688 91.3103 18.568 91.1823 19.592C91.0543 20.584 90.9903 21.656 90.9903 22.808C90.9903 23.992 91.0543 25.112 91.1823 26.168C91.3423 27.224 91.6143 28.152 91.9983 28.952C92.3823 29.72 92.8943 30.328 93.5343 30.776C94.2063 31.224 95.0543 31.448 96.0782 31.448C97.0063 31.448 97.7583 31.24 98.3343 30.824C98.9423 30.408 99.4063 29.832 99.7263 29.096C100.078 28.328 100.318 27.448 100.446 26.456C100.574 25.464 100.638 24.392 100.638 23.24C100.638 22.056 100.558 20.936 100.398 19.88C100.27 18.824 100.014 17.896 99.6303 17.096C99.2463 16.296 98.7183 15.672 98.0463 15.224C97.4063 14.776 96.5743 14.552 95.5503 14.552ZM128.651 35.384C128.587 35.352 128.443 35.208 128.219 34.952C127.995 34.664 127.739 34.28 127.451 33.8C127.195 33.32 126.939 32.728 126.683 32.024C126.427 31.288 126.267 30.44 126.203 29.48C125.659 31.4 124.779 32.856 123.563 33.848C122.379 34.808 120.763 35.288 118.715 35.288C117.211 35.288 115.899 35.016 114.779 34.472C113.691 33.896 112.779 33.096 112.043 32.072C111.307 31.016 110.763 29.752 110.411 28.28C110.059 26.808 109.883 25.176 109.883 23.384C109.883 21.56 110.155 19.88 110.699 18.344C111.275 16.776 112.059 15.432 113.051 14.312C114.075 13.192 115.291 12.312 116.699 11.672C118.107 11.032 119.659 10.712 121.355 10.712C121.931 10.712 122.539 10.744 123.179 10.808C123.851 10.872 124.507 10.952 125.147 11.048V0.199999L130.619 1.16V23.432C130.619 25.352 130.731 26.952 130.955 28.232C131.179 29.48 131.435 30.504 131.723 31.304C132.011 32.072 132.267 32.632 132.491 32.984C132.747 33.336 132.891 33.56 132.923 33.656L128.651 35.384ZM119.627 31.4C120.427 31.4 121.163 31.128 121.835 30.584C122.507 30.04 123.083 29.336 123.563 28.472C124.075 27.576 124.459 26.568 124.715 25.448C125.003 24.328 125.147 23.176 125.147 21.992V15.08C124.827 14.984 124.347 14.872 123.707 14.744C123.067 14.616 122.491 14.552 121.979 14.552C120.763 14.552 119.755 14.76 118.955 15.176C118.187 15.592 117.563 16.168 117.083 16.904C116.603 17.64 116.267 18.52 116.075 19.544C115.883 20.568 115.787 21.688 115.787 22.904C115.787 24.024 115.819 25.096 115.883 26.12C115.947 27.144 116.107 28.056 116.363 28.856C116.651 29.624 117.051 30.248 117.563 30.728C118.075 31.176 118.763 31.4 119.627 31.4ZM135.618 23.624C135.618 21.48 135.906 19.592 136.482 17.96C137.09 16.328 137.906 14.968 138.93 13.88C139.986 12.76 141.218 11.928 142.626 11.384C144.034 10.808 145.554 10.52 147.186 10.52C148.626 10.52 149.842 10.696 150.834 11.048C151.858 11.4 152.69 11.88 153.33 12.488C153.97 13.096 154.434 13.816 154.722 14.648C155.042 15.48 155.202 16.376 155.202 17.336C155.202 18.488 154.882 19.592 154.242 20.648C153.602 21.672 152.674 22.584 151.458 23.384C150.274 24.152 148.834 24.776 147.138 25.256C145.442 25.704 143.538 25.944 141.426 25.976C141.522 26.712 141.666 27.416 141.858 28.088C142.082 28.728 142.386 29.304 142.77 29.816C143.186 30.296 143.714 30.68 144.354 30.968C144.994 31.256 145.794 31.4 146.754 31.4C147.458 31.4 148.21 31.32 149.01 31.16C149.81 31 150.546 30.808 151.218 30.584C152.018 30.328 152.802 30.04 153.57 29.72L155.01 33.128C154.178 33.544 153.282 33.912 152.322 34.232C151.49 34.52 150.53 34.776 149.442 35C148.354 35.224 147.202 35.336 145.986 35.336C144.13 35.336 142.546 35.064 141.234 34.52C139.922 33.944 138.85 33.144 138.018 32.12C137.186 31.096 136.578 29.864 136.194 28.424C135.81 26.984 135.618 25.384 135.618 23.624ZM146.754 14.264C145.698 14.264 144.818 14.52 144.114 15.032C143.442 15.512 142.898 16.152 142.482 16.952C142.066 17.72 141.762 18.6 141.57 19.592C141.41 20.552 141.314 21.528 141.282 22.52C142.818 22.456 144.114 22.264 145.17 21.944C146.258 21.592 147.138 21.176 147.81 20.696C148.482 20.184 148.962 19.64 149.25 19.064C149.57 18.488 149.73 17.912 149.73 17.336C149.73 16.408 149.458 15.672 148.914 15.128C148.37 14.552 147.65 14.264 146.754 14.264ZM163.345 39.224C163.825 39.416 164.337 39.608 164.881 39.8C165.425 40.024 166.001 40.232 166.609 40.424C167.217 40.616 167.825 40.776 168.433 40.904C169.073 41.032 169.697 41.096 170.305 41.096C172.097 41.096 173.393 40.552 174.193 39.464C174.993 38.408 175.393 37.032 175.393 35.336C175.393 33.672 175.041 31.992 174.337 30.296C173.793 31.928 172.929 33.176 171.745 34.04C170.593 34.872 169.057 35.288 167.137 35.288C165.633 35.288 164.321 35.016 163.201 34.472C162.113 33.896 161.201 33.096 160.465 32.072C159.729 31.016 159.185 29.752 158.833 28.28C158.481 26.808 158.305 25.176 158.305 23.384C158.305 21.56 158.577 19.88 159.121 18.344C159.697 16.776 160.481 15.432 161.473 14.312C162.497 13.192 163.713 12.312 165.121 11.672C166.529 11.032 168.081 10.712 169.777 10.712C170.545 10.712 171.361 10.76 172.225 10.856C173.121 10.952 173.985 11.08 174.817 11.24C175.681 11.368 176.481 11.512 177.217 11.672C177.985 11.832 178.641 11.976 179.185 12.104L178.945 25.304C178.913 26.264 178.961 27.144 179.089 27.944C179.249 28.744 179.425 29.544 179.617 30.344C179.809 31.112 179.985 31.896 180.145 32.696C180.305 33.496 180.385 34.376 180.385 35.336C180.385 38.728 179.521 41.256 177.793 42.92C176.065 44.584 173.729 45.416 170.785 45.416C169.825 45.416 168.865 45.32 167.905 45.128C166.945 44.968 166.049 44.776 165.217 44.552C164.417 44.328 163.729 44.104 163.153 43.88C162.577 43.656 162.193 43.496 162.001 43.4L163.345 39.224ZM168.049 31.448C168.817 31.448 169.521 31.192 170.161 30.68C170.833 30.168 171.425 29.496 171.937 28.664C172.449 27.8 172.849 26.824 173.137 25.736C173.425 24.648 173.569 23.528 173.569 22.376V15.08C173.249 14.984 172.769 14.872 172.129 14.744C171.489 14.616 170.913 14.552 170.401 14.552C169.185 14.552 168.177 14.76 167.377 15.176C166.609 15.592 165.985 16.168 165.505 16.904C165.025 17.64 164.689 18.52 164.497 19.544C164.305 20.568 164.209 21.688 164.209 22.904C164.209 24.024 164.241 25.096 164.305 26.12C164.369 27.144 164.529 28.056 164.785 28.856C165.073 29.656 165.473 30.296 165.985 30.776C166.497 31.224 167.185 31.448 168.049 31.448ZM199.453 11.096H204.925V23.432C204.925 25.352 205.037 26.968 205.261 28.28C205.517 29.56 205.789 30.6 206.077 31.4C206.429 32.36 206.813 33.112 207.229 33.656L202.957 35.384C202.573 35.032 202.221 34.584 201.901 34.04C201.645 33.592 201.373 33.048 201.085 32.408C200.829 31.736 200.653 30.952 200.557 30.056C199.693 31.944 198.477 33.288 196.909 34.088C195.341 34.888 193.709 35.288 192.013 35.288C189.485 35.288 187.677 34.552 186.589 33.08C185.533 31.608 185.005 29.592 185.005 27.032V11.096H190.477V26.936C190.477 28.28 190.717 29.336 191.197 30.104C191.677 30.872 192.493 31.256 193.645 31.256C194.349 31.256 195.037 31.064 195.709 30.68C196.413 30.264 197.037 29.688 197.581 28.952C198.157 28.216 198.605 27.336 198.925 26.312C199.277 25.256 199.453 24.088 199.453 22.808V11.096ZM216.629 35.192C214.933 35.192 213.637 34.696 212.741 33.704C211.845 32.68 211.397 31.368 211.397 29.768V11.096H216.869V29.288C216.869 30.024 216.981 30.52 217.205 30.776C217.429 31.032 217.765 31.16 218.213 31.16C218.341 31.16 218.469 31.16 218.597 31.16C218.757 31.16 218.901 31.144 219.029 31.112C219.157 31.112 219.301 31.096 219.461 31.064L220.037 34.52C219.813 34.648 219.525 34.76 219.173 34.856C218.885 34.952 218.517 35.032 218.069 35.096C217.653 35.16 217.173 35.192 216.629 35.192ZM214.229 0.439999C215.253 0.439999 216.037 0.743999 216.581 1.352C217.125 1.96 217.397 2.744 217.397 3.704C217.397 4.664 217.109 5.464 216.533 6.104C215.989 6.744 215.173 7.064 214.085 7.064C213.061 7.064 212.261 6.76 211.685 6.152C211.141 5.512 210.869 4.744 210.869 3.848C210.869 2.856 211.141 2.04 211.685 1.4C212.261 0.759998 213.109 0.439999 214.229 0.439999ZM221.043 11.096H225.363L226.323 5.48L230.835 4.472V11.096H236.739L236.067 14.984H230.835V29.192C230.835 30.024 231.059 30.568 231.507 30.824C231.955 31.048 232.451 31.16 232.995 31.16C233.443 31.16 233.891 31.128 234.339 31.064C234.787 31 235.187 30.92 235.539 30.824C235.955 30.728 236.355 30.616 236.739 30.488L237.651 34.088L237.219 34.232C236.931 34.36 236.499 34.504 235.923 34.664C235.379 34.792 234.723 34.904 233.955 35C233.219 35.128 232.403 35.192 231.507 35.192C230.611 35.192 229.779 35.096 229.011 34.904C228.275 34.712 227.635 34.408 227.091 33.992C226.547 33.544 226.115 32.984 225.795 32.312C225.507 31.64 225.363 30.808 225.363 29.816V14.984H221.043V11.096ZM259.619 23.432C259.619 25.352 259.731 26.968 259.955 28.28C260.211 29.56 260.483 30.6 260.771 31.4C261.123 32.36 261.507 33.112 261.923 33.656L257.651 35.384C257.235 34.968 256.851 34.472 256.499 33.896C256.211 33.384 255.939 32.776 255.683 32.072C255.427 31.336 255.267 30.472 255.203 29.48C254.659 31.4 253.779 32.856 252.563 33.848C251.379 34.808 249.763 35.288 247.715 35.288C246.211 35.288 244.899 35.016 243.779 34.472C242.691 33.896 241.779 33.096 241.043 32.072C240.307 31.016 239.763 29.752 239.411 28.28C239.059 26.808 238.883 25.176 238.883 23.384C238.883 21.56 239.155 19.88 239.699 18.344C240.275 16.776 241.059 15.432 242.051 14.312C243.075 13.192 244.291 12.312 245.699 11.672C247.107 11.032 248.659 10.712 250.355 10.712C251.315 10.712 252.307 10.792 253.331 10.952C254.387 11.08 255.363 11.224 256.259 11.384C257.155 11.544 257.907 11.704 258.515 11.864C259.155 11.992 259.523 12.072 259.619 12.104V23.432ZM248.627 31.448C249.427 31.448 250.163 31.176 250.835 30.632C251.507 30.088 252.083 29.384 252.563 28.52C253.075 27.624 253.459 26.616 253.715 25.496C254.003 24.344 254.147 23.176 254.147 21.992V15.08C253.827 14.984 253.347 14.872 252.707 14.744C252.067 14.616 251.491 14.552 250.979 14.552C249.763 14.552 248.755 14.76 247.955 15.176C247.187 15.592 246.563 16.168 246.083 16.904C245.603 17.64 245.267 18.52 245.075 19.544C244.883 20.568 244.787 21.688 244.787 22.904C244.787 24.024 244.819 25.096 244.883 26.12C244.947 27.144 245.107 28.056 245.363 28.856C245.651 29.656 246.051 30.296 246.563 30.776C247.075 31.224 247.763 31.448 248.627 31.448Z" fill="white"/>
<path d="M259.253 34C285.157 69.8244 14.5474 64.7787 3 42.0731" stroke="white" stroke-width="4.5"/>
</svg>
